<?xml version="1.0" encoding="utf-8"?>
<!-- Generator: Adobe Illustrator 18.1.1, SVG Export Plug-In . SVG Version: 6.00 Build 0)  -->
<!DOCTYPE svg PUBLIC "-//W3C//DTD SVG 1.1//EN" "http://www.w3.org/Graphics/SVG/1.1/DTD/svg11.dtd">
<svg version="1.1" id="Layer_1" xmlns="http://www.w3.org/2000/svg" xmlns:xlink="http://www.w3.org/1999/xlink" x="0px" y="0px"
	 viewBox="0 0 1297.6 878.1" style="enable-background:new 0 0 1297.6 878.1;" xml:space="preserve">
<g id="circulos">
	<g>
		<g>
			<g>
				<ellipse style="fill-rule:evenodd;clip-rule:evenodd;fill:#B61B72;" cx="861.4" cy="406.4" rx="145.5" ry="171.2"/>
			</g>
		</g>
	</g>
	<g>
		<g>
			<g>
				<ellipse style="fill-rule:evenodd;clip-rule:evenodd;fill:#5B9CD6;" cx="845.4" cy="418.3" rx="145.5" ry="171.2"/>
			</g>
		</g>
	</g>
	<g>
		<g>
			<g>
				<ellipse style="fill-rule:evenodd;clip-rule:evenodd;fill:#F5DB32;" cx="837.8" cy="413.8" rx="139.8" ry="164.5"/>
			</g>
		</g>
	</g>
	<g>
		<g>
			<g>
				<g>
					<ellipse style="fill-rule:evenodd;clip-rule:evenodd;fill:#1F1D20;" cx="832.2" cy="426.2" rx="139.8" ry="164.5"/>
				</g>
			</g>
		</g>
	</g>
</g>
<g id="printing">
	<g>
		<path style="fill:#C01377;" d="M320.1,637.3c-1.9-1.9-3.8-3.9-6.4-6.7c-5.9,5.5-12.5,7.9-20.1,7.9c-13.4,0-21.1-9-21.1-19.3
			c0-9.4,5.6-15.8,13.5-20.1v-0.3c-3.6-4.5-5.7-9.5-5.7-14.4c0-8.4,6-16.9,17.4-16.9c8.6,0,15.2,5.7,15.2,14.6
			c0,7.2-4.2,13-15.1,18.4v0.3c5.8,6.7,12.3,14.3,16.7,19.2c3.2-4.8,5.3-11.4,6.6-20.1h8.2c-1.8,10.8-4.8,19.4-9.9,25.4
			c3.7,3.9,7.2,7.8,11.3,12.1H320.1z M309.3,625.4c-4.1-4.5-11.7-12.9-19.4-21.6c-3.7,2.3-8.9,6.7-8.9,14c0,7.9,5.8,13.9,14.1,13.9
			C301,631.7,306,629,309.3,625.4z M288.4,583.5c0,4.9,2.2,8.7,5.2,12.3c6.9-4,11.4-7.7,11.4-13.5c0-4.2-2.3-8.9-8-8.9
			C291.3,573.5,288.4,578.2,288.4,583.5z"/>
		<path style="fill:#B32271;" d="M293.6,641.9c-14.3,0-24.6-9.6-24.6-22.8c0-8.6,4.2-15.9,12.1-21.2c-2.8-4.4-4.3-9.1-4.3-13.6
			c0-5.2,2-10.3,5.4-14c2.7-2.9,7.6-6.5,15.6-6.5c10.8,0,18.7,7.6,18.7,18.1c0,8-4.1,14.1-13.3,19.5c3.8,4.4,7.6,8.7,10.7,12.3
			c1.7-3.8,3-8.6,3.9-14.6l0.5-3h15.3l-0.7,4.1c-1.8,10.8-4.6,18.7-8.8,24.6c2,2.1,4,4.3,6.1,6.5l8.7,9.3h-20.1l-1-1
			c-1.4-1.4-2.7-2.8-4.2-4.4C307.6,639.7,301.1,641.9,293.6,641.9z M282.1,605.8c-4.1,3.6-6.2,8-6.2,13.3c0,9.8,7.5,14.8,15.2,15.6
			c-8-1.7-13.7-8.4-13.7-17C277.5,614.5,278.4,610.1,282.1,605.8z M321.5,633.8h1.1c-2-2.1-3.9-4.2-5.8-6.2l-1.9-2l0,0l-3-3.4
			c-4.3-4.8-10.6-12.1-16.8-19.2l-0.9-1v-2.5l-1.5,0.9l-1.9-2.3c-3-3.7-6-8.3-6-14.5c0-3.3,0.9-6.2,2.4-8.4
			c-2.1,2.2-3.5,5.3-3.5,9.2c0,3.9,1.7,8.1,5,12.2l0.8,1v2.5l1.1-0.7l2,2.3c6.8,7.8,13.8,15.5,18,20.1l3.5,3.9l-0.2,0.2l2.4,2.5
			C318.2,630.3,319.9,632.1,321.5,633.8z M289.4,608.5c-3.3,2.7-4.8,5.8-4.8,9.3c0,6.1,4.3,10.4,10.6,10.4c3.3,0,6.6-1.1,9.2-3
			C300.5,621,295,614.9,289.4,608.5z M324.1,603.2c-1.4,7.9-3.6,13.9-6.7,18.5l-0.9,1.3l0.2-0.2c3.8-4.5,6.5-10.8,8.3-19.6H324.1z
			 M297,577c-4.9,0-5.2,5.4-5.2,6.5c0,2.6,0.8,4.9,2.6,7.7c5.1-3.3,7-5.7,7-8.8C301.5,581.5,301.3,577,297,577z M304.3,572.6
			c2.8,2.4,4.2,6.1,4.2,9.8c0,3.4-1.2,6.2-3,8.5c3.2-3.3,3.8-6.3,3.8-9C309.3,577.8,307.4,574.4,304.3,572.6z"/>
	</g>
	<g>
		<path style="fill:#C01377;" d="M360.4,569.3c4.3-0.7,9.9-1.3,17-1.3c8.8,0,15.2,2,19.3,5.7c3.8,3.3,6,8.3,6,14.4
			c0,6.2-1.8,11.1-5.3,14.7c-4.7,5-12.3,7.5-21,7.5c-2.7,0-5.1-0.1-7.1-0.6v27.5h-8.9V569.3z M369.2,602.5c1.9,0.5,4.4,0.7,7.3,0.7
			c10.7,0,17.2-5.2,17.2-14.7c0-9.1-6.4-13.5-16.2-13.5c-3.9,0-6.8,0.3-8.4,0.7V602.5z"/>
		<path style="fill:#B32271;" d="M372.7,640.8h-15.9v-74.4l2.9-0.5c5.5-0.9,11.4-1.4,17.6-1.4c9.5,0,16.7,2.2,21.6,6.6
			c4.6,4,7.2,10,7.2,17c0,7.1-2.1,12.8-6.3,17.1c-5.2,5.5-13.6,8.6-23.5,8.6c-1.2,0-2.4,0-3.6-0.1V640.8z M363.9,633.8h1.9v-28.5
			l4.3,1.1c1.8,0.4,4.2,0.5,6.3,0.5c8,0,14.6-2.3,18.5-6.4c2.9-3,4.4-7.1,4.4-12.3c0-4.9-1.7-9.1-4.8-11.7c-3.6-3.2-9.4-4.9-17-4.9
			c-4.7,0-9.3,0.3-13.5,0.8V633.8z M376.6,606.7c-3.5,0-6.1-0.3-8.2-0.8l-2.6-0.7v-32.1l2.6-0.7c2-0.5,5.4-0.8,9.3-0.8
			c12.3,0,19.7,6.3,19.7,17C397.3,599.7,389.4,606.7,376.6,606.7z M372.7,599.5c1.1,0.1,2.4,0.2,3.8,0.2c6.3,0,13.7-1.9,13.7-11.2
			c0-6.6-4.3-10-12.7-10c-2,0-3.6,0.1-4.9,0.2V599.5z"/>
	</g>
	<g>
		<path style="fill:#C01377;" d="M412.7,603.3c0-5.8-0.1-10.8-0.4-15.4h7.9l0.3,9.7h0.4c2.2-6.6,7.7-10.8,13.7-10.8
			c1,0,1.7,0.1,2.6,0.3v8.5c-0.9-0.2-1.8-0.3-3.1-0.3c-6.3,0-10.8,4.8-12,11.5c-0.2,1.2-0.4,2.7-0.4,4.2v26.3h-8.9V603.3z"/>
		<path style="fill:#B32271;" d="M425.1,640.8h-15.9v-37.5c0-6.3-0.1-11-0.4-15.2l-0.2-3.7h15l0.1,2.9c3.1-2.6,6.8-4.1,10.9-4.1
			c1.2,0,2.2,0.1,3.4,0.4l2.7,0.7v15.6l-4.3-0.9c-0.7-0.2-1.4-0.2-2.3-0.2c-5.2,0-7.8,4.5-8.6,8.7c-0.2,1.1-0.4,2.3-0.4,3.6V640.8z
			 M416.2,633.8h1.9V611c0-1.8,0.2-3.4,0.5-4.8c0.3-1.8,0.9-3.6,1.6-5.1h-3l-0.3-9.7H416c0.1,3.4,0.2,7.2,0.2,11.9V633.8z
			 M433.6,590.3c-2.2,0.2-4.3,1.2-5.9,2.8c1.8-0.9,3.8-1.3,5.9-1.4V590.3z"/>
	</g>
	<g>
		<path style="fill:#C01377;" d="M456.5,574c0.1,3.1-2.1,5.5-5.7,5.5c-3.2,0-5.4-2.4-5.4-5.5c0-3.2,2.3-5.6,5.6-5.6
			C454.3,568.4,456.5,570.9,456.5,574z M446.5,637.3v-49.4h9v49.4H446.5z"/>
		<path style="fill:#B32271;" d="M458.9,640.8h-16v-56.4h16V640.8z M450,633.8h2v-42.4h-2V633.8z M450.7,583c-5,0-8.9-4-8.9-9
			c0-5.1,4-9.1,9.1-9.1c5.1,0,9,3.9,9,9.1c0.1,2.4-0.8,4.7-2.4,6.3C455.8,582.1,453.4,583,450.7,583z M450.9,571.9
			c-1.3,0-2.1,0.8-2.1,2.1c0,1,0.6,2,1.9,2c0.8,0,1.4-0.2,1.8-0.6c0.4-0.4,0.5-0.9,0.4-1.3l0-0.1C453,573.2,452.7,571.9,450.9,571.9
			z"/>
	</g>
	<g>
		<path style="fill:#C01377;" d="M470.3,601.3c0-5.1-0.1-9.3-0.4-13.4h8l0.5,8.2h0.2c2.4-4.7,8.2-9.3,16.3-9.3
			c6.8,0,17.4,4.1,17.4,21v29.5h-9v-28.5c0-8-3-14.6-11.4-14.6c-5.9,0-10.5,4.2-12,9.2c-0.4,1.1-0.6,2.7-0.6,4.2v29.7h-9V601.3z"/>
		<path style="fill:#B32271;" d="M515.9,640.8h-16v-32c0-11.1-6-11.1-7.9-11.1c-4.6,0-7.7,3.5-8.7,6.7l-0.1,0.2
			c-0.2,0.5-0.4,1.6-0.4,3v33.2h-16v-39.5c0-5.5-0.1-9.4-0.4-13.1l-0.3-3.8h15l0.2,3.2c3.4-2.5,7.9-4.3,13.5-4.3
			c9.7,0,20.9,6.4,20.9,24.5V640.8z M506.9,633.8h2v-26c0-16.2-10.7-17.5-13.9-17.5c-1.4,0-2.8,0.2-4,0.5c0.4,0,0.7,0,1.1,0
			c9.3,0,14.9,6.8,14.9,18.1V633.8z M473.8,633.8h2v-26.2c0-2,0.3-3.8,0.8-5.3c0.3-1,0.7-1.9,1.1-2.7h-2.6l-0.5-8.2h-1
			c0.1,2.8,0.2,6,0.2,9.9V633.8z"/>
	</g>
	<g>
		<path style="fill:#C01377;" d="M537.3,573.7v14.2h12.9v6.8h-12.9v26.6c0,6.1,1.7,9.6,6.7,9.6c2.3,0,4.1-0.3,5.2-0.6l0.4,6.7
			c-1.7,0.7-4.5,1.2-8,1.2c-4.2,0-7.5-1.3-9.7-3.8c-2.6-2.7-3.5-7-3.5-12.9v-26.9h-7.7v-6.8h7.7v-11.8L537.3,573.7z"/>
		<path style="fill:#B32271;" d="M541.7,641.8c-5.2,0-9.4-1.7-12.3-4.9c-3-3.2-4.4-8-4.4-15.2v-23.4h-7.7v-13.8h7.7v-11l15.8-4.2
			v15.2h12.9v13.8h-12.9v23.1c0,6.1,1.7,6.1,3.2,6.1c2.1,0,3.5-0.3,4.3-0.5l4.2-1.1l0.8,13.5l-2.3,1
			C548.7,641.3,545.4,641.8,541.7,641.8z M532.1,591.2v30.4c0,5.3,0.8,8.7,2.5,10.4l0.1,0.1c1.9,2.1,4.9,2.6,7.1,2.6
			c1.6,0,3-0.1,4.3-0.3l0-0.1c-0.6,0-1.2,0.1-1.9,0.1c-8.5,0-10.2-7.1-10.2-13.1v-43.1l-1.8,0.5V591.2z"/>
	</g>
	<g>
		<path style="fill:#C01377;" d="M570.3,574c0.1,3.1-2.1,5.5-5.7,5.5c-3.2,0-5.4-2.4-5.4-5.5c0-3.2,2.3-5.6,5.6-5.6
			C568.1,568.4,570.3,570.9,570.3,574z M560.3,637.3v-49.4h9v49.4H560.3z"/>
		<path style="fill:#B32271;" d="M572.8,640.8h-16v-56.4h16V640.8z M563.8,633.8h2v-42.4h-2V633.8z M564.6,583c-5,0-8.9-4-8.9-9
			c0-5.1,4-9.1,9.1-9.1c5.1,0,9,3.9,9,9.1c0.1,2.4-0.8,4.7-2.4,6.3C569.7,582.1,567.3,583,564.6,583z M564.8,571.9
			c-1.3,0-2.1,0.8-2.1,2.1c0,1,0.6,2,1.9,2c0.8,0,1.4-0.2,1.8-0.6c0.4-0.4,0.5-0.9,0.4-1.3l0-0.1
			C566.8,573.2,566.5,571.9,564.8,571.9z"/>
	</g>
	<g>
		<path style="fill:#C01377;" d="M584.2,601.3c0-5.1-0.1-9.3-0.4-13.4h8l0.5,8.2h0.2c2.4-4.7,8.2-9.3,16.3-9.3
			c6.8,0,17.4,4.1,17.4,21v29.5h-9v-28.5c0-8-3-14.6-11.4-14.6c-5.9,0-10.5,4.2-12,9.2c-0.4,1.1-0.6,2.7-0.6,4.2v29.7h-9V601.3z"/>
		<path style="fill:#B32271;" d="M629.7,640.8h-16v-32c0-11.1-6-11.1-7.9-11.1c-4.6,0-7.7,3.5-8.7,6.7l-0.1,0.2
			c-0.2,0.5-0.4,1.6-0.4,3v33.2h-16v-39.5c0-5.5-0.1-9.4-0.4-13.1l-0.3-3.8h15l0.2,3.2c3.4-2.5,7.9-4.3,13.5-4.3
			c9.7,0,20.9,6.4,20.9,24.5V640.8z M620.7,633.8h2v-26c0-16.2-10.7-17.5-13.9-17.5c-1.4,0-2.8,0.2-4,0.5c0.4,0,0.7,0,1.1,0
			c9.3,0,14.9,6.8,14.9,18.1V633.8z M587.7,633.8h2v-26.2c0-2,0.3-3.8,0.8-5.3c0.3-1,0.7-1.9,1.1-2.7h-2.6l-0.5-8.2h-1
			c0.1,2.8,0.2,6,0.2,9.9V633.8z"/>
	</g>
	<g>
		<path style="fill:#C01377;" d="M683.3,587.9c-0.2,3.6-0.4,7.5-0.4,13.6v28.7c0,11.3-2.2,18.3-7,22.5c-4.8,4.5-11.7,5.9-18,5.9
			c-5.9,0-12.4-1.4-16.4-4.1l2.2-6.8c3.3,2,8.4,3.9,14.5,3.9c9.2,0,15.9-4.8,15.9-17.2v-5.5h-0.2c-2.8,4.6-8.1,8.3-15.7,8.3
			c-12.2,0-21-10.4-21-24.1c0-16.7,10.9-26.2,22.2-26.2c8.6,0,13.3,4.5,15.4,8.6h0.2l0.4-7.4H683.3z M674,607.4
			c0-1.5-0.1-2.9-0.5-4.1c-1.6-5.2-6-9.5-12.5-9.5c-8.6,0-14.7,7.2-14.7,18.7c0,9.7,4.9,17.7,14.6,17.7c5.5,0,10.5-3.5,12.4-9.2
			c0.5-1.5,0.7-3.3,0.7-4.8V607.4z"/>
		<path style="fill:#B32271;" d="M657.9,662.1c-7,0-14-1.8-18.4-4.7l-2.2-1.5l4.5-13.6l3.8,2.4c1.6,1,6.1,3.3,12.6,3.3
			c7.4,0,11.5-3.6,12.3-10.8c-3.5,2.2-7.7,3.4-12.3,3.4c-14,0-24.5-11.9-24.5-27.6c0-8.7,2.7-16.3,7.8-21.8c4.7-5.1,11.2-8,17.9-8
			c5.6,0,9.6,1.6,12.6,3.7l0.1-2.6H687l-0.2,3.7c-0.2,3.7-0.4,7.5-0.4,13.4v28.7c0,12.3-2.5,20.1-8.2,25.2
			C672.2,660.9,663.8,662.1,657.9,662.1z M645.7,652.8c3.3,1.4,7.7,2.3,12.2,2.3c4.7,0,11.2-0.9,15.6-5c4.1-3.7,5.9-9.8,5.9-20
			v-28.7c0-4.1,0.1-7.3,0.2-10.1h-0.9l-0.4,7.4h-2.9c0.6,1.1,1.1,2.2,1.4,3.4c0.6,1.8,0.7,3.6,0.7,5.1v8.9c0,1.5-0.2,3.7-0.9,5.9
			c-0.4,1.1-0.9,2.2-1.4,3.1h2.4v9c0,13.2-7.1,20.7-19.4,20.7c-4.3,0-8.7-0.9-12.4-2.4L645.7,652.8z M659.4,590.3
			c-9.3,0-18.7,7.8-18.7,22.7c0,11.9,7.4,20.6,17.5,20.6c0,0,0.1,0,0.1,0c-9.4-1.2-15.5-9.4-15.5-21.1c0-12.9,7.4-22,17.9-22.2
			C660.3,590.3,659.9,590.3,659.4,590.3z M661,597.3c-6.8,0-11.2,6-11.2,15.2c0,6.9,2.9,14.2,11.1,14.2c4.1,0,7.7-2.7,9.1-6.8
			c0.3-1,0.5-2.3,0.5-3.7v-8.9c0-1.4-0.1-2.3-0.3-3C669.7,602.7,667.5,597.3,661,597.3z"/>
	</g>
</g>
<g id="best">
	<path style="fill:#C01377;stroke:#B32271;stroke-width:7;stroke-miterlimit:10;" d="M37.1,202.9c3.9-0.8,10-1.4,16.2-1.4
		c8.9,0,14.6,1.5,18.9,5c3.6,2.7,5.7,6.7,5.7,12.1c0,6.6-4.4,12.4-11.6,15.1v0.2c6.5,1.6,14.2,7,14.2,17.2c0,5.9-2.3,10.4-5.8,13.8
		c-4.8,4.4-12.5,6.4-23.8,6.4c-6.1,0-10.8-0.4-13.8-0.8V202.9z M46,231H54c9.4,0,14.9-4.9,14.9-11.5c0-8.1-6.1-11.2-15.1-11.2
		c-4.1,0-6.4,0.3-7.9,0.6V231z M46,264c1.7,0.3,4.3,0.4,7.4,0.4c9.2,0,17.6-3.4,17.6-13.4c0-9.4-8.1-13.3-17.7-13.3H46V264z"/>
	<path style="fill:#C01377;stroke:#B32271;stroke-width:7;stroke-miterlimit:10;" d="M97.5,247.6c0.2,12.1,8,17.1,16.9,17.1
		c6.4,0,10.3-1.1,13.7-2.5l1.5,6.4c-3.2,1.4-8.6,3.1-16.4,3.1c-15.2,0-24.3-10-24.3-24.9c0-14.9,8.8-26.6,23.2-26.6
		c16.1,0,20.4,14.2,20.4,23.3c0,1.8-0.2,3.3-0.3,4.2H97.5z M123.8,241.2c0.1-5.7-2.3-14.6-12.4-14.6c-9.1,0-13.1,8.4-13.8,14.6
		H123.8z"/>
	<path style="fill:#C01377;stroke:#B32271;stroke-width:7;stroke-miterlimit:10;" d="M142.4,261.5c2.7,1.7,7.3,3.6,11.8,3.6
		c6.5,0,9.6-3.3,9.6-7.3c0-4.3-2.6-6.6-9.2-9.1c-8.9-3.2-13.1-8.1-13.1-14c0-8,6.4-14.5,17-14.5c5,0,9.4,1.4,12.1,3.1l-2.2,6.5
		c-1.9-1.2-5.5-2.9-10.1-2.9c-5.3,0-8.3,3.1-8.3,6.7c0,4.1,3,5.9,9.4,8.4c8.6,3.3,13,7.5,13,14.9c0,8.7-6.7,14.8-18.5,14.8
		c-5.4,0-10.4-1.3-13.9-3.4L142.4,261.5z"/>
	<path style="fill:#C01377;stroke:#B32271;stroke-width:7;stroke-miterlimit:10;" d="M194.8,207.1v14.2h12.9v6.8h-12.9v26.6
		c0,6.1,1.7,9.6,6.7,9.6c2.3,0,4.1-0.3,5.2-0.6l0.4,6.7c-1.7,0.7-4.5,1.2-8,1.2c-4.2,0-7.5-1.3-9.7-3.8c-2.6-2.7-3.5-7-3.5-12.9
		v-26.9h-7.7v-6.8h7.7v-11.8L194.8,207.1z"/>
	<path style="fill:#C01377;stroke:#B32271;stroke-width:7;stroke-miterlimit:10;" d="M239.7,202.7c4.3-0.7,9.9-1.3,17-1.3
		c8.8,0,15.2,2,19.3,5.7c3.8,3.3,6,8.3,6,14.4c0,6.2-1.8,11.1-5.3,14.7c-4.7,5-12.3,7.5-21,7.5c-2.7,0-5.1-0.1-7.1-0.6v27.5h-8.9
		V202.7z M248.5,235.9c1.9,0.5,4.4,0.7,7.3,0.7c10.7,0,17.2-5.2,17.2-14.7c0-9.1-6.4-13.5-16.2-13.5c-3.9,0-6.8,0.3-8.4,0.7V235.9z"
		/>
	<path style="fill:#C01377;stroke:#B32271;stroke-width:7;stroke-miterlimit:10;" d="M292,236.7c0-5.8-0.1-10.8-0.4-15.4h7.9
		l0.3,9.7h0.4c2.2-6.6,7.7-10.8,13.7-10.8c1,0,1.7,0.1,2.6,0.3v8.5c-0.9-0.2-1.8-0.3-3.1-0.3c-6.3,0-10.8,4.8-12,11.5
		c-0.2,1.2-0.4,2.7-0.4,4.2v26.3H292V236.7z"/>
	<path style="fill:#C01377;stroke:#B32271;stroke-width:7;stroke-miterlimit:10;" d="M335.7,207.4c0.1,3.1-2.1,5.5-5.7,5.5
		c-3.2,0-5.4-2.4-5.4-5.5c0-3.2,2.3-5.6,5.6-5.6C333.6,201.8,335.7,204.3,335.7,207.4z M325.8,270.7v-49.4h9v49.4H325.8z"/>
	<path style="fill:#C01377;stroke:#B32271;stroke-width:7;stroke-miterlimit:10;" d="M384.8,268.8c-2.3,1.2-7.5,2.9-14.2,2.9
		c-14.9,0-24.6-10.1-24.6-25.2c0-15.2,10.4-26.2,26.5-26.2c5.3,0,10,1.3,12.4,2.6l-2,6.9c-2.1-1.2-5.5-2.3-10.4-2.3
		c-11.3,0-17.4,8.4-17.4,18.7c0,11.4,7.3,18.5,17.1,18.5c5.1,0,8.5-1.3,11-2.4L384.8,268.8z"/>
	<path style="fill:#C01377;stroke:#B32271;stroke-width:7;stroke-miterlimit:10;" d="M399.7,247.6c0.2,12.1,8,17.1,16.9,17.1
		c6.4,0,10.3-1.1,13.7-2.5l1.5,6.4c-3.2,1.4-8.6,3.1-16.4,3.1c-15.2,0-24.3-10-24.3-24.9c0-14.9,8.8-26.6,23.2-26.6
		c16.1,0,20.4,14.2,20.4,23.3c0,1.8-0.2,3.3-0.3,4.2H399.7z M426,241.2c0.1-5.7-2.3-14.6-12.4-14.6c-9.1,0-13.1,8.4-13.8,14.6H426z"
		/>
</g>
<g id="gotas">
	<path style="fill:#EEE83C;" d="M1209.6,440.9c-2.8,1.1-5.7,2.1-8.6,3c-13.2,3.9-27.2,5.3-41.3,3.7c-6.6-0.7-13.3-2.1-19.8-4.2
		c-3.4-1.1-6.7-2.3-10.1-3.8c-2.6-1.1-5.2-2.4-7.7-3.7c-2.7-1.4-5.3-3-7.9-4.6c-0.6-0.4-1.2-0.8-1.8-1.2c-0.6-0.4-1.2-0.8-1.7-1.2
		c-3.6-2.4-7.2-5.1-10.7-7.9c-3.6-2.9-7.1-6-10.6-9.3c-24.6-23-47-54.3-70.8-84.8c-30.1-38.7-62.1-76.2-103.1-94
		c0,0,0.1-0.2,0.1-0.2l0,0l0,0c44.2,19.6,93.9,17.5,142.1,12.8c38-3.7,75-9.1,107.8-7.2c4.7,0.3,9.4,0.7,13.9,1.3
		c4.4,0.6,8.8,1.3,13,2.3c0.7,0.2,1.4,0.3,2,0.5c0.7,0.2,1.4,0.3,2.1,0.5c3,0.8,5.9,1.6,8.8,2.6c2.6,0.9,5.1,1.9,7.5,2.9
		c3.5,1.5,6.8,3.2,10,5c5.9,3.4,11.5,7.3,16.5,11.6c10.6,9.1,19.2,20.3,25.3,32.5c1.3,2.7,2.6,5.5,3.7,8.3c0.9,2.2,1.7,4.5,2.4,6.7
		c2.4,7.6,4,15.5,4.6,23.5c0.1,1.2,0.2,2.5,0.2,3.8c0,1.1,0.1,2.2,0.1,3.3c0,1.4,0,2.9,0,4.3c-0.2,4.9-0.7,9.9-1.5,14.8
		c-0.7,4.1-1.7,8.2-3,12.3c-1.1,3.7-2.5,7.4-4.1,11c-2.1,4.7-4.4,9.2-7.1,13.5c-5.5,8.8-12.1,16.6-19.7,23.3
		c-7.6,6.7-16.1,12.2-25.2,16.4c-0.6,0.3-1.2,0.5-1.8,0.8c-0.4,0.2-0.9,0.4-1.3,0.6C1211.1,440.3,1210.4,440.6,1209.6,440.9z"/>
	<path style="fill:#BB1875;" d="M1083,714c-2.8-1.2-5.5-2.6-8.2-4c-12.1-6.6-22.9-15.7-31.6-26.8c-4.1-5.2-7.8-10.9-10.9-17.1
		c-1.6-3.2-3.1-6.4-4.4-9.8c-1-2.6-1.9-5.3-2.8-8.1c-0.9-2.9-1.6-5.9-2.3-8.9c-0.2-0.7-0.3-1.4-0.4-2.1c-0.1-0.7-0.3-1.4-0.4-2.1
		c-0.8-4.3-1.4-8.7-1.8-13.2c-0.4-4.6-0.7-9.3-0.9-14.1c-0.9-33.7,5.6-71.6,10.6-109.9c6.4-48.6,10.6-97.8-5.6-139.5
		c0,0,0.2-0.1,0.2,0l0,0l0,0c17.1,45.2,53.6,79.1,90.7,110.1c29.3,24.4,59.2,47,80.9,71.6c3.1,3.6,6.1,7.2,8.9,10.8
		c2.7,3.6,5.2,7.2,7.5,10.8c0.4,0.6,0.7,1.2,1.1,1.8c0.4,0.6,0.7,1.2,1.1,1.8c1.5,2.7,3,5.4,4.3,8.1c1.2,2.4,2.3,4.9,3.2,7.4
		c1.4,3.5,2.5,7.1,3.5,10.6c1.8,6.6,2.9,13.3,3.3,19.9c1,14-0.9,27.9-5.4,40.9c-1,2.9-2.1,5.7-3.3,8.4c-1,2.2-2,4.3-3.1,6.4
		c-3.7,7-8.2,13.7-13.5,19.7c-0.8,0.9-1.7,1.9-2.5,2.8c-0.8,0.8-1.5,1.6-2.3,2.4c-1,1-2,2-3.1,3c-3.6,3.3-7.5,6.5-11.6,9.3
		c-3.5,2.4-7.1,4.6-10.9,6.5c-3.4,1.8-7,3.4-10.7,4.8c-4.8,1.9-9.7,3.4-14.6,4.5c-10.1,2.3-20.4,3.1-30.4,2.3
		c-10.1-0.7-20-2.9-29.4-6.4c-0.6-0.2-1.2-0.5-1.8-0.7c-0.4-0.2-0.9-0.4-1.3-0.5C1084.5,714.7,1083.8,714.3,1083,714z"/>
	<path style="fill:#5B9CD6;" d="M807.8,804c-1.2-2.8-2.3-5.6-3.2-8.5c-4.3-13.1-6-27.1-4.8-41.1c0.6-6.7,1.8-13.3,3.7-19.9
		c1-3.4,2.1-6.8,3.5-10.2c1.1-2.6,2.2-5.2,3.5-7.8c1.4-2.7,2.8-5.4,4.4-8.1c0.4-0.6,0.7-1.2,1.1-1.8c0.4-0.6,0.7-1.2,1.1-1.8
		c2.3-3.7,4.9-7.3,7.6-10.9c2.8-3.7,5.8-7.3,9-10.9c22.3-25.2,53-48.5,82.8-73c37.8-31.1,74.5-64.2,91.2-105.7c0,0,0.2,0.1,0.2,0.1
		l0,0l0,0c-18.4,44.7-14.9,94.4-8.9,142.4c4.7,37.9,11.1,74.8,10.2,107.5c-0.1,4.7-0.5,9.4-0.9,14c-0.5,4.4-1.1,8.8-1.9,13
		c-0.1,0.7-0.3,1.4-0.4,2c-0.1,0.7-0.3,1.4-0.5,2.1c-0.7,3-1.5,5.9-2.4,8.8c-0.8,2.6-1.7,5.1-2.7,7.6c-1.4,3.5-3,6.9-4.7,10.1
		c-3.2,6-6.9,11.6-11.1,16.8c-8.9,10.9-19.7,19.7-31.8,26.2c-2.7,1.4-5.4,2.7-8.2,3.9c-2.2,0.9-4.4,1.8-6.7,2.6
		c-7.5,2.6-15.3,4.4-23.3,5.2c-1.2,0.1-2.5,0.2-3.7,0.3c-1.1,0.1-2.2,0.1-3.3,0.2c-1.4,0.1-2.9,0.1-4.3,0.1c-4.9,0-9.9-0.4-14.8-1.1
		c-4.1-0.6-8.3-1.5-12.4-2.6c-3.7-1-7.4-2.3-11.1-3.8c-4.8-1.9-9.4-4.2-13.7-6.7c-9-5.2-16.9-11.7-23.8-19
		c-6.9-7.4-12.6-15.8-17.1-24.8c-0.3-0.6-0.6-1.2-0.8-1.7c-0.2-0.4-0.4-0.9-0.6-1.3C808.5,805.5,808.2,804.8,807.8,804z"/>
	<path style="fill:#0E0D0C;" d="M1116.9,171.9c-1.2,2.8-2.5,5.5-4,8.2c-6.5,12.1-15.5,23-26.5,31.8c-5.2,4.2-10.9,7.9-17,11.1
		c-3.2,1.6-6.4,3.1-9.8,4.5c-2.6,1-5.3,2-8.1,2.8c-2.9,0.9-5.9,1.7-8.9,2.4c-0.7,0.2-1.4,0.3-2.1,0.5c-0.7,0.1-1.4,0.3-2.1,0.4
		c-4.3,0.8-8.7,1.5-13.1,1.9c-4.6,0.5-9.3,0.8-14.1,1c-33.7,1.1-71.7-5.1-110-9.8c-48.6-6-97.8-9.9-139.4,6.6c0,0-0.1-0.2,0-0.2l0,0
		l0,0c45.1-17.4,78.7-54.1,109.4-91.5c24.2-29.5,46.6-59.5,71-81.4c3.5-3.2,7.1-6.1,10.8-8.9c3.5-2.7,7.1-5.2,10.8-7.6
		c0.6-0.4,1.2-0.7,1.8-1.1c0.6-0.4,1.2-0.7,1.8-1.1c2.6-1.6,5.3-3,8.1-4.4c2.4-1.2,4.9-2.3,7.4-3.3c3.5-1.4,7-2.6,10.6-3.6
		c6.6-1.8,13.2-3,19.9-3.5c14-1.1,27.9,0.7,40.9,5.1c2.9,1,5.7,2,8.4,3.2c2.2,0.9,4.3,2,6.5,3.1c7.1,3.7,13.7,8.1,19.8,13.3
		c1,0.8,1.9,1.6,2.8,2.5c0.8,0.8,1.6,1.5,2.4,2.3c1,1,2,2,3,3.1c3.4,3.6,6.5,7.4,9.4,11.5c2.4,3.4,4.6,7,6.6,10.8
		c1.8,3.4,3.5,7,4.9,10.7c1.9,4.8,3.4,9.7,4.6,14.5c2.4,10.1,3.2,20.3,2.6,30.3c-0.6,10.1-2.8,20-6.2,29.4c-0.2,0.6-0.4,1.2-0.7,1.8
		c-0.2,0.4-0.3,0.9-0.5,1.3C1117.6,170.3,1117.3,171.1,1116.9,171.9z"/>
</g>
<g id="signs">
	<g>
		<path style="fill:#1F1D20;stroke:#000000;stroke-miterlimit:10;" d="M23.9,462.5l60.7-12.4c5.1,19.4,18.2,29.1,39.3,29.1
			c16.4,0,24.6-4.9,24.6-14.8c0-5.2-1.9-9.2-5.7-12.1c-3.8-2.9-10.6-5.4-20.4-7.7c-37.3-8.1-61.3-18.7-71.9-31.7
			c-10.6-13.1-15.9-28.4-15.9-46.1c0-22.7,7.6-41.6,22.9-56.6c15.2-15.1,37.2-22.6,65.8-22.6c43.4,0,72,19.7,86,59.1l-54.1,18.5
			c-5.6-16.1-17-24.2-34.2-24.2c-14.2,0-21.4,5-21.4,15c0,4.5,1.6,7.9,4.8,10.4c3.2,2.5,9.5,4.8,18.7,7
			c25.5,6.1,43.6,11.5,54.3,16.2c10.7,4.7,19.7,12.7,26.8,24.1c7.2,11.4,10.8,24.7,10.8,40.2c0,24.4-8.7,44.1-26.2,59.2
			c-17.5,15.1-40.4,22.7-68.8,22.7C68.1,535.9,36.1,511.4,23.9,462.5z"/>
	</g>
	<g>
		<path style="fill:#1F1D20;stroke:#000000;stroke-miterlimit:10;" d="M286,298.7v240.8h-65.4V298.7H286z"/>
	</g>
	<g>
		<path style="fill:#1F1D20;stroke:#000000;stroke-miterlimit:10;" d="M487.7,404.6v135h-32c-2.6-10-5.5-18.4-8.6-25.2
			c-13.2,19.3-32.8,28.9-58.7,28.9c-27.5,0-50-10.9-67.7-32.6c-17.7-21.7-26.5-51.1-26.5-88.1c0-36,8.6-66.2,25.7-90.8
			c17.1-24.5,42.6-36.8,76.4-36.8c25.4,0,45.8,7.3,61.3,21.9c15.5,14.6,25.5,35.3,30.1,62.1l-63.3,7.1
			c-3.1-25.1-12.8-37.6-29.2-37.6c-21.4,0-32.1,23.1-32.1,69.2c0,27.9,3.4,46.3,10.3,55.1c6.9,8.9,15.2,13.3,25,13.3
			c7.9,0,14.6-2.7,20.2-8.1c5.6-5.4,8.4-12.8,8.5-22.2h-35.3v-51.2H487.7z"/>
	</g>
	<g>
		<g>
			<g>
				<path style="fill:#1F1D20;" d="M683.7,539.6h-53.2l-58.3-106.4c-7.5-13.6-15-30.2-22.6-49.7c3.4,15.5,5.1,28.7,5.1,39.5v116.6
					h-53V298.7h61.8L613,387c9.9,17.5,17.4,32.9,22.5,46.2c-3.3-20.6-5-41.6-5-63.2v-71.3h53.2V539.6z"/>
			</g>
			<g>
				<path d="M684.2,540.1h-54l-0.1-0.3l-58.3-106.4c-6.8-12.3-13.6-27.2-20.5-44.3c2.6,13,3.9,24.4,3.9,33.8v117.1h-54V298.2h62.6
					l0.1,0.3l49.6,88.2c8.8,15.7,15.8,29.8,20.8,42.1c-2.9-19.1-4.3-38.9-4.3-58.8v-71.8h54.2V540.1z M630.8,539.1h52.4V299.2H631
					V370c0,21.4,1.7,42.6,5,63.1l0.8,4.8l-1.7-4.5c-5.1-13.2-12.6-28.7-22.4-46.2l-49.5-88h-61v239.8h52V423c0-10.7-1.7-24-5.1-39.4
					l1-0.3c7.6,19.4,15.2,36.1,22.6,49.7L630.8,539.1z"/>
			</g>
		</g>
	</g>
	<g>
		<g>
			<g>
				<path style="fill:#FFFFFF;" d="M732.6,474.2l60.7-12.4c5.1,19.4,18.2,29.1,39.3,29.1c16.4,0,24.6-4.9,24.6-14.8
					c0-5.2-1.9-9.2-5.7-12.1c-3.8-2.9-10.6-5.4-20.4-7.7c-37.3-8.1-61.3-18.7-71.9-31.7c-10.6-13.1-15.9-28.4-15.9-46.1
					c0-22.7,7.6-41.6,22.9-56.6c15.2-15.1,37.2-22.6,65.8-22.6c43.4,0,72,19.7,86,59.1L863.8,377c-5.6-16.1-17-24.2-34.2-24.2
					c-14.2,0-21.4,5-21.4,15c0,4.5,1.6,7.9,4.8,10.4c3.2,2.5,9.5,4.8,18.7,7c25.5,6.1,43.6,11.5,54.3,16.2
					c10.7,4.7,19.7,12.7,26.8,24.1c7.2,11.4,10.8,24.7,10.8,40.2c0,24.4-8.7,44.1-26.2,59.2c-17.5,15.1-40.4,22.7-68.8,22.7
					C776.8,547.6,744.8,523.2,732.6,474.2z"/>
			</g>
		</g>
	</g>
</g>
</svg>
